<svg xmlns="http://www.w3.org/2000/svg" xmlns:xlink="http://www.w3.org/1999/xlink" width="500" zoomAndPan="magnify" viewBox="0 0 375 374.999991" height="500" preserveAspectRatio="xMidYMid meet" version="1.0"><defs><clipPath id="11968706d8"><path d="M 131.019531 130.183594 L 213 130.183594 L 213 212 L 131.019531 212 Z M 131.019531 130.183594 " clip-rule="nonzero"/></clipPath><clipPath id="c95984ee0b"><path d="M 162 163 L 244.195312 163 L 244.195312 244.933594 L 162 244.933594 Z M 162 163 " clip-rule="nonzero"/></clipPath></defs><g clip-path="url(#11968706d8)"><path fill="#000000" d="M 193.390625 154.683594 C 191.390625 154.683594 189.46875 153.945312 187.964844 152.625 C 183.652344 148.832031 178.015625 146.523438 171.824219 146.523438 C 158.285156 146.523438 147.308594 157.5 147.308594 171.039062 C 147.304688 184.574219 158.285156 195.542969 171.824219 195.542969 L 204.503906 195.542969 C 209.019531 195.542969 212.679688 199.203125 212.679688 203.71875 C 212.679688 208.230469 209.019531 211.890625 204.503906 211.890625 L 171.824219 211.890625 C 149.265625 211.886719 130.972656 193.597656 130.972656 171.035156 C 130.972656 148.46875 149.265625 130.195312 171.824219 130.183594 C 182.15625 130.191406 191.589844 134.03125 198.785156 140.355469 C 204.453125 145.335938 200.9375 154.683594 193.390625 154.683594 Z M 193.390625 154.683594 " fill-opacity="1" fill-rule="nonzero"/></g><g clip-path="url(#c95984ee0b)"><path fill="#000000" d="M 181.753906 220.449219 C 183.75 220.449219 185.671875 221.1875 187.175781 222.507812 C 191.488281 226.296875 197.121094 228.609375 203.316406 228.609375 C 216.894531 228.609375 227.886719 217.554688 227.824219 203.972656 C 227.761719 190.4375 216.582031 179.578125 203.042969 179.578125 L 170.632812 179.578125 C 166.121094 179.578125 162.460938 175.921875 162.460938 171.40625 C 162.460938 166.894531 166.121094 163.238281 170.632812 163.238281 L 203.316406 163.238281 C 225.875 163.238281 244.171875 181.527344 244.171875 204.089844 C 244.171875 226.652344 225.875 244.929688 203.316406 244.941406 C 192.984375 244.933594 183.550781 241.09375 176.359375 234.769531 C 170.6875 229.792969 174.203125 220.449219 181.753906 220.449219 Z M 181.753906 220.449219 " fill-opacity="1" fill-rule="nonzero"/></g></svg>